<?xml version="1.0" encoding="UTF-8" standalone="no"?><!DOCTYPE svg PUBLIC "-//W3C//DTD SVG 1.1//EN" "http://www.w3.org/Graphics/SVG/1.1/DTD/svg11.dtd"><svg width="100%" height="100%" viewBox="0 0 359 369" version="1.1" xmlns="http://www.w3.org/2000/svg" xmlns:xlink="http://www.w3.org/1999/xlink" xml:space="preserve" xmlns:serif="http://www.serif.com/" style="fill-rule:evenodd;clip-rule:evenodd;stroke-linecap:round;stroke-linejoin:round;stroke-miterlimit:10;"><rect id="Inputs-right" serif:id="Inputs right" x="0" y="0" width="358.181" height="368.778" style="fill:none;"/><clipPath id="_clip1"><rect id="Inputs-right1" serif:id="Inputs right" x="0" y="0" width="358.181" height="368.778"/></clipPath><g clip-path="url(#_clip1)"><g><path d="M338.209,29.062c-0,-16.051 -13.012,-29.062 -29.062,-29.062c-9.843,-0 -20.832,-0 -30.675,-0c-16.051,0 -29.062,13.011 -29.062,29.062l0,22.799c0,16.051 13.011,29.062 29.062,29.062l30.675,-0c16.05,-0 29.062,-13.011 29.062,-29.062c-0,-7.414 -0,-15.385 -0,-22.799Z" style="fill:url(#_Linear2);"/><path d="M338.209,29.062l-0,22.799c-0,16.051 -13.012,29.062 -29.062,29.062l-30.675,-0c-16.051,-0 -29.062,-13.011 -29.062,-29.062l0,-22.799c0,-16.051 13.011,-29.062 29.062,-29.062l30.675,-0c16.05,0 29.062,13.011 29.062,29.062Zm-9.012,-0c0,-11.074 -8.977,-20.05 -20.05,-20.05l-30.675,-0c-11.074,-0 -20.05,8.976 -20.05,20.05l-0,22.799c-0,11.074 8.976,20.05 20.05,20.05l30.675,0c11.073,0 20.05,-8.976 20.05,-20.05l0,-22.799Z" style="fill:#fff;fill-opacity:0.23;"/><path d="M278.844,25.436c0,-3.414 3.66,-5.578 6.653,-3.933l27.624,15.196c3.1,1.704 3.1,6.159 0,7.863l-27.622,15.196c-2.992,1.645 -6.652,-0.519 -6.652,-3.933l-0,-30.389l-0.003,-0Z" style="fill:#fff;"/></g><g><path d="M189.617,309.904c-0,-7.708 -3.062,-15.1 -8.512,-20.55c-5.451,-5.45 -12.843,-8.512 -20.55,-8.512c-27.648,-0 -69.016,-0 -96.664,-0c-7.708,-0 -15.1,3.062 -20.55,8.512c-5.45,5.45 -8.512,12.842 -8.512,20.55c0,9.264 0,19.513 0,28.778c0,7.708 3.062,15.1 8.512,20.55c5.45,5.45 12.842,8.512 20.55,8.512c27.648,-0 69.016,-0 96.664,-0c7.707,-0 15.099,-3.062 20.55,-8.512c5.45,-5.45 8.512,-12.842 8.512,-20.55c-0,-9.265 -0,-19.514 -0,-28.778Z" style="fill:url(#_Linear3);"/><path d="M189.617,309.904l-0,28.778c-0,7.708 -3.062,15.1 -8.512,20.55c-5.451,5.45 -12.843,8.512 -20.55,8.512l-96.664,-0c-7.708,-0 -15.1,-3.062 -20.55,-8.512c-5.45,-5.45 -8.512,-12.842 -8.512,-20.55l0,-28.778c0,-7.708 3.062,-15.1 8.512,-20.55c5.45,-5.45 12.842,-8.512 20.55,-8.512l96.664,-0c7.707,-0 15.099,3.062 20.55,8.512c5.45,5.45 8.512,12.842 8.512,20.55Zm-9.012,-0c-0,-5.318 -2.113,-10.418 -5.873,-14.178c-3.76,-3.76 -8.86,-5.872 -14.177,-5.872l-96.664,-0c-5.318,-0 -10.418,2.112 -14.178,5.872c-3.76,3.76 -5.872,8.86 -5.872,14.178l-0,28.778c-0,5.318 2.112,10.417 5.872,14.178c3.76,3.76 8.86,5.872 14.178,5.872l96.664,0c5.317,0 10.417,-2.112 14.177,-5.872c3.76,-3.761 5.873,-8.86 5.873,-14.178l-0,-28.778Z" style="fill:#fff;fill-opacity:0.23;"/><path d="M162.998,324.293l-36.12,-0" style="fill:none;stroke:#fff;stroke-width:14.83px;"/><path d="M144.938,306.233l0,36.12" style="fill:none;stroke:#fff;stroke-width:14.83px;"/><path d="M61.448,324.293l36.119,-0" style="fill:none;stroke:#fff;stroke-width:14.83px;"/></g><g><path d="M357.43,162.334c-0,-7.707 -3.062,-15.099 -8.512,-20.549c-5.45,-5.451 -12.842,-8.512 -20.55,-8.512c-67.102,-0 -232.205,-0 -299.306,-0c-7.708,-0 -15.1,3.061 -20.55,8.512c-5.45,5.45 -8.512,12.842 -8.512,20.549c0,10.359 0,22.021 0,32.38c0,7.707 3.062,15.099 8.512,20.549c5.45,5.45 12.842,8.512 20.55,8.512c67.101,0 232.204,0 299.306,0c7.708,0 15.1,-3.062 20.55,-8.512c5.45,-5.45 8.512,-12.842 8.512,-20.549c-0,-10.359 -0,-22.021 -0,-32.38Z" style="fill:#fff;"/><path d="M357.43,162.334l-0,32.38c-0,7.707 -3.062,15.099 -8.512,20.549c-5.45,5.45 -12.842,8.512 -20.55,8.512l-299.306,0c-7.708,0 -15.1,-3.062 -20.55,-8.512c-5.45,-5.45 -8.512,-12.842 -8.512,-20.549l0,-32.38c0,-7.707 3.062,-15.099 8.512,-20.549c5.45,-5.451 12.842,-8.512 20.55,-8.512l299.306,-0c7.708,-0 15.1,3.061 20.55,8.512c5.45,5.45 8.512,12.842 8.512,20.549Zm-9.012,0c0,-5.317 -2.112,-10.417 -5.872,-14.177c-3.76,-3.76 -8.86,-5.873 -14.178,-5.873l-299.306,0c-5.318,0 -10.418,2.113 -14.178,5.873c-3.76,3.76 -5.872,8.86 -5.872,14.177l-0,32.38c-0,5.317 2.112,10.417 5.872,14.177c3.76,3.76 8.86,5.873 14.178,5.873l299.306,-0c5.318,-0 10.418,-2.113 14.178,-5.873c3.76,-3.76 5.872,-8.86 5.872,-14.177l0,-32.38Z" style="fill-opacity:0.23;"/><g><path d="M315.024,199.172l0,-40.367" style="fill:none;stroke:#000;stroke-width:9.88px;"/><path d="M308.251,155.232l6.773,2.644l6.773,-2.644" style="fill:#fff;fill-opacity:0;stroke:#000;stroke-width:9.88px;"/><path d="M308.251,201.815l6.773,-2.643l6.773,2.643" style="fill:#fff;fill-opacity:0;stroke:#000;stroke-width:9.88px;"/></g></g></g><defs><linearGradient id="_Linear2" x1="0" y1="0" x2="1" y2="0" gradientUnits="userSpaceOnUse" gradientTransform="matrix(88.7985,0,-1.01669e-15,80.923,249.41,40.4615)"><stop offset="0" style="stop-color:#219387;stop-opacity:1"/><stop offset="1" style="stop-color:#1fc476;stop-opacity:1"/></linearGradient><linearGradient id="_Linear3" x1="0" y1="0" x2="1" y2="0" gradientUnits="userSpaceOnUse" gradientTransform="matrix(154.787,0,-1.77222e-15,86.9018,34.8292,324.293)"><stop offset="0" style="stop-color:#c8476e;stop-opacity:1"/><stop offset="1" style="stop-color:#f4a275;stop-opacity:1"/></linearGradient></defs></svg>