<?xml version="1.0" encoding="UTF-8" standalone="no"?><!DOCTYPE svg PUBLIC "-//W3C//DTD SVG 1.1//EN" "http://www.w3.org/Graphics/SVG/1.1/DTD/svg11.dtd"><svg width="100%" height="100%" viewBox="0 0 401 494" version="1.1" xmlns="http://www.w3.org/2000/svg" xmlns:xlink="http://www.w3.org/1999/xlink" xml:space="preserve" xmlns:serif="http://www.serif.com/" style="fill-rule:evenodd;clip-rule:evenodd;stroke-linecap:round;stroke-linejoin:round;stroke-miterlimit:10;"><rect id="Input-left" serif:id="Input left" x="0" y="0" width="400.883" height="493.903" style="fill:none;"/><clipPath id="_clip1"><rect id="Input-left1" serif:id="Input left" x="0" y="0" width="400.883" height="493.903"/></clipPath><g clip-path="url(#_clip1)"><g><path d="M400.339,29.062c0,-16.051 -13.011,-29.062 -29.061,-29.062c-55.968,-0 -178.116,-0 -234.084,-0c-16.05,0 -29.061,13.011 -29.061,29.062c-0,14.376 -0,31.682 -0,46.058c-0,16.05 13.011,29.062 29.061,29.062c55.968,-0 178.116,-0 234.084,-0c16.05,-0 29.061,-13.012 29.061,-29.062c0,-14.376 0,-31.682 0,-46.058Z" style="fill:url(#_Linear2);"/><path d="M400.339,29.062l0,46.058c0,16.05 -13.011,29.062 -29.061,29.062l-234.084,-0c-16.05,-0 -29.061,-13.012 -29.061,-29.062l-0,-46.058c-0,-16.051 13.011,-29.062 29.061,-29.062l234.084,-0c16.05,0 29.061,13.011 29.061,29.062Zm-9.011,-0c-0,-11.074 -8.977,-20.05 -20.05,-20.05l-234.084,-0c-11.073,-0 -20.05,8.976 -20.05,20.05l0,46.058c0,11.073 8.977,20.05 20.05,20.05l234.084,0c11.073,0 20.05,-8.977 20.05,-20.05l-0,-46.058Z" style="fill:#fff;fill-opacity:0.23;"/><path d="M320.598,42.501l19.18,19.18l18.065,-18.066" style="fill:none;stroke:#fff;stroke-width:12.79px;"/></g><g><path d="M394.251,152.469c0,-7.707 -3.062,-15.099 -8.512,-20.549c-5.45,-5.45 -12.842,-8.512 -20.55,-8.512c-72.952,-0 -263.175,-0 -336.127,-0c-7.708,-0 -15.1,3.062 -20.55,8.512c-5.45,5.45 -8.512,12.842 -8.512,20.549c0,64.832 0,220.66 0,285.491c0,7.708 3.062,15.1 8.512,20.55c5.45,5.45 12.842,8.512 20.55,8.512c72.952,-0 263.175,-0 336.127,-0c7.708,-0 15.1,-3.062 20.55,-8.512c5.45,-5.45 8.512,-12.842 8.512,-20.55l0,-285.491Z" style="fill:#fff;fill-opacity:0.1;"/><path d="M394.251,152.469l0,285.491c0,7.708 -3.062,15.1 -8.512,20.55c-5.45,5.45 -12.842,8.512 -20.55,8.512l-336.127,-0c-7.708,-0 -15.1,-3.062 -20.55,-8.512c-5.45,-5.45 -8.512,-12.842 -8.512,-20.55l-0,-285.491c0,-7.707 3.062,-15.099 8.512,-20.549c5.45,-5.45 12.842,-8.512 20.55,-8.512l336.127,-0c7.708,-0 15.1,3.062 20.55,8.512c5.45,5.45 8.512,12.842 8.512,20.549Zm-9.012,0c0,-5.317 -2.112,-10.417 -5.872,-14.177c-3.76,-3.76 -8.86,-5.873 -14.178,-5.873l-336.127,0c-5.318,0 -10.418,2.113 -14.178,5.873c-3.76,3.76 -5.872,8.86 -5.872,14.178l-0,285.49c-0,5.318 2.112,10.417 5.872,14.178c3.76,3.76 8.86,5.872 14.178,5.872l336.127,0c5.318,0 10.418,-2.112 14.178,-5.872c3.76,-3.761 5.872,-8.86 5.872,-14.178l0,-285.491Z" style="fill:#fff;fill-opacity:0;"/><path d="M376.012,188.967c0,-16.051 -13.011,-29.062 -29.061,-29.062c-66.785,0 -230.58,0 -297.365,0c-16.05,0 -29.061,13.011 -29.061,29.062c-0,0.742 -0,1.486 -0,2.228c-0,16.051 13.011,29.062 29.061,29.062c66.785,-0 230.58,-0 297.365,-0c16.05,-0 29.061,-13.011 29.061,-29.062c0,-0.742 0,-1.486 0,-2.228Z" style="fill:#fff;fill-opacity:0.1;"/><path d="M376.012,188.967l0,2.228c0,16.051 -13.011,29.062 -29.061,29.062l-297.365,-0c-16.05,-0 -29.061,-13.011 -29.061,-29.062l-0,-2.228c-0,-16.051 13.011,-29.062 29.061,-29.062l297.365,0c16.05,0 29.061,13.011 29.061,29.062Zm-9.011,-0c-0,-11.074 -8.977,-20.05 -20.05,-20.05l-297.365,-0c-11.073,-0 -20.05,8.976 -20.05,20.05l0,2.228c0,11.074 8.977,20.05 20.05,20.05l297.365,0c11.073,0 20.05,-8.976 20.05,-20.05l-0,-2.228Z" style="fill:#fff;fill-opacity:0;"/><path d="M376.012,294.1c0,-16.05 -13.011,-29.061 -29.061,-29.061c-66.785,-0 -230.58,-0 -297.365,-0c-16.05,-0 -29.061,13.011 -29.061,29.061c-0,0.743 -0,1.486 -0,2.229c-0,16.05 13.011,29.062 29.061,29.062c66.785,-0 230.58,-0 297.365,-0c16.05,-0 29.061,-13.012 29.061,-29.062c0,-0.743 0,-1.486 0,-2.229Z" style="fill:#fff;fill-opacity:0.1;"/><path d="M376.012,294.1l0,2.229c0,16.05 -13.011,29.062 -29.061,29.062l-297.365,-0c-16.05,-0 -29.061,-13.012 -29.061,-29.062l-0,-2.229c-0,-16.05 13.011,-29.061 29.061,-29.061l297.365,-0c16.05,-0 29.061,13.011 29.061,29.061Zm-9.011,0c-0,-11.073 -8.977,-20.05 -20.05,-20.05l-297.365,0c-11.073,0 -20.05,8.977 -20.05,20.05l0,2.229c0,11.073 8.977,20.05 20.05,20.05l297.365,0c11.073,0 20.05,-8.977 20.05,-20.05l-0,-2.229Z" style="fill:#fff;fill-opacity:0;"/><path d="M376.012,401.759c0,-16.05 -13.011,-29.061 -29.061,-29.061c-66.785,-0 -230.58,-0 -297.365,-0c-16.05,-0 -29.061,13.011 -29.061,29.061c-0,0.743 -0,1.486 -0,2.229c-0,16.05 13.011,29.062 29.061,29.062c66.785,-0 230.58,-0 297.365,-0c16.05,-0 29.061,-13.012 29.061,-29.062c0,-0.743 0,-1.486 0,-2.229Z" style="fill:#fff;fill-opacity:0.1;"/><path d="M376.012,401.759l0,2.229c0,16.05 -13.011,29.062 -29.061,29.062l-297.365,-0c-16.05,-0 -29.061,-13.012 -29.061,-29.062l-0,-2.229c-0,-16.05 13.011,-29.061 29.061,-29.061l297.365,-0c16.05,-0 29.061,13.011 29.061,29.061Zm-9.011,0c-0,-11.073 -8.977,-20.05 -20.05,-20.05l-297.365,0c-11.073,0 -20.05,8.977 -20.05,20.05l0,2.229c0,11.073 8.977,20.05 20.05,20.05l297.365,0c11.073,-0 20.05,-8.977 20.05,-20.05l-0,-2.229Z" style="fill:#fff;fill-opacity:0;"/></g></g><defs><linearGradient id="_Linear2" x1="0" y1="0" x2="1" y2="0" gradientUnits="userSpaceOnUse" gradientTransform="matrix(292.207,0,-3.34558e-15,104.182,108.133,52.0909)"><stop offset="0" style="stop-color:#a13dc3;stop-opacity:1"/><stop offset="1" style="stop-color:#7784ff;stop-opacity:1"/></linearGradient></defs></svg>