<?xml version="1.0" encoding="UTF-8" standalone="no"?><!DOCTYPE svg PUBLIC "-//W3C//DTD SVG 1.1//EN" "http://www.w3.org/Graphics/SVG/1.1/DTD/svg11.dtd"><svg width="100%" height="100%" viewBox="0 0 808 149" version="1.1" xmlns="http://www.w3.org/2000/svg" xmlns:xlink="http://www.w3.org/1999/xlink" xml:space="preserve" xmlns:serif="http://www.serif.com/" style="fill-rule:evenodd;clip-rule:evenodd;stroke-linecap:round;stroke-linejoin:round;stroke-miterlimit:10;"><rect id="Logo" x="0" y="0" width="807.15" height="148.509" style="fill:none;"/><g id="Logo1" serif:id="Logo"><g><g><path d="M0,104.998l0,-102.085l44.064,-0c7.577,-0 14.206,1.495 19.889,4.486c5.682,2.991 10.102,7.194 13.259,12.611c3.157,5.417 4.736,11.747 4.736,18.992c-0,7.31 -1.62,13.641 -4.86,18.991c-3.241,5.35 -7.777,9.471 -13.609,12.362c-5.832,2.891 -12.636,4.337 -20.412,4.337l-26.319,-0l0,-21.534l20.737,0c3.256,0 6.039,-0.573 8.349,-1.72c2.309,-1.146 4.087,-2.783 5.333,-4.91c1.247,-2.126 1.87,-4.635 1.87,-7.526c-0,-2.925 -0.623,-5.425 -1.87,-7.502c-1.246,-2.077 -3.024,-3.672 -5.333,-4.786c-2.31,-1.113 -5.093,-1.669 -8.349,-1.669l-9.77,-0l-0,79.953l-27.715,0Z" style="fill-rule:nonzero;"/><path d="M92.315,104.998l-0,-76.564l26.718,0l-0,14.555l0.797,0c1.396,-5.383 3.614,-9.321 6.655,-11.813c3.04,-2.493 6.604,-3.739 10.692,-3.739c1.196,0 2.384,0.092 3.564,0.274c1.179,0.183 2.318,0.441 3.414,0.773l0,23.478c-1.362,-0.466 -3.04,-0.814 -5.034,-1.047c-1.994,-0.233 -3.706,-0.349 -5.135,-0.349c-2.691,-0 -5.109,0.606 -7.252,1.819c-2.144,1.213 -3.83,2.908 -5.06,5.085c-1.229,2.176 -1.844,4.727 -1.844,7.651l0,39.877l-27.515,0Z" style="fill-rule:nonzero;"/><path d="M190.825,106.394c-8.308,-0 -15.42,-1.653 -21.335,-4.96c-5.915,-3.306 -10.451,-7.925 -13.608,-13.857c-3.157,-5.932 -4.735,-12.819 -4.735,-20.661c-0,-7.843 1.578,-14.73 4.735,-20.662c3.157,-5.931 7.693,-10.551 13.608,-13.857c5.915,-3.307 13.027,-4.96 21.335,-4.96c8.307,0 15.419,1.653 21.334,4.96c5.915,3.306 10.451,7.926 13.608,13.857c3.157,5.932 4.735,12.819 4.735,20.662c0,7.842 -1.578,14.729 -4.735,20.661c-3.157,5.932 -7.693,10.551 -13.608,13.857c-5.915,3.307 -13.027,4.96 -21.334,4.96Zm0.199,-20.337c2.326,-0 4.337,-0.781 6.031,-2.343c1.695,-1.562 3.008,-3.788 3.938,-6.68c0.931,-2.891 1.396,-6.33 1.396,-10.318c-0,-4.021 -0.465,-7.468 -1.396,-10.343c-0.93,-2.874 -2.243,-5.093 -3.938,-6.654c-1.694,-1.562 -3.705,-2.343 -6.031,-2.343c-2.459,-0 -4.569,0.781 -6.331,2.343c-1.761,1.561 -3.107,3.78 -4.037,6.654c-0.931,2.875 -1.396,6.322 -1.396,10.343c0,3.988 0.465,7.427 1.396,10.318c0.93,2.892 2.276,5.118 4.037,6.68c1.762,1.562 3.872,2.343 6.331,2.343Z" style="fill-rule:nonzero;"/><path d="M240.211,104.998l0,-76.564l26.12,0l-0,14.555l0.797,0c1.595,-4.785 4.32,-8.573 8.175,-11.365c3.855,-2.791 8.441,-4.187 13.758,-4.187c5.383,0 10.019,1.421 13.907,4.262c3.888,2.841 6.231,6.605 7.028,11.29l0.798,0c1.296,-4.685 4.054,-8.449 8.274,-11.29c4.22,-2.841 9.172,-4.262 14.854,-4.262c7.344,0 13.301,2.36 17.87,7.078c4.57,4.719 6.854,11 6.854,18.842l0,51.641l-27.515,0l-0,-44.662c-0,-3.356 -0.847,-5.99 -2.542,-7.901c-1.695,-1.911 -3.971,-2.866 -6.829,-2.866c-2.825,0 -5.06,0.955 -6.705,2.866c-1.644,1.911 -2.467,4.545 -2.467,7.901l0,44.662l-26.319,0l0,-44.662c0,-3.356 -0.847,-5.99 -2.542,-7.901c-1.695,-1.911 -3.971,-2.866 -6.829,-2.866c-1.894,0 -3.522,0.432 -4.885,1.296c-1.362,0.864 -2.417,2.102 -3.165,3.714c-0.748,1.611 -1.122,3.53 -1.122,5.757l0,44.662l-27.515,0Z" style="fill-rule:nonzero;"/><path d="M369.015,133.71l-0,-105.276l27.316,0l-0,13.359l0.598,0c0.997,-2.592 2.459,-4.976 4.386,-7.153c1.928,-2.177 4.32,-3.921 7.178,-5.234c2.858,-1.312 6.181,-1.969 9.969,-1.969c5.051,0 9.862,1.346 14.431,4.038c4.569,2.692 8.291,6.928 11.166,12.711c2.874,5.782 4.311,13.292 4.311,22.53c0,8.84 -1.371,16.167 -4.112,21.983c-2.742,5.815 -6.397,10.152 -10.966,13.009c-4.57,2.858 -9.579,4.287 -15.029,4.287c-3.589,0 -6.787,-0.59 -9.595,-1.769c-2.808,-1.18 -5.201,-2.792 -7.178,-4.835c-1.978,-2.044 -3.498,-4.362 -4.561,-6.954l-0.399,-0l-0,41.273l-27.515,-0Zm26.917,-66.994c-0,3.722 0.49,6.937 1.47,9.646c0.981,2.708 2.376,4.801 4.187,6.28c1.811,1.479 3.98,2.218 6.505,2.218c2.526,0 4.678,-0.722 6.455,-2.168c1.778,-1.446 3.141,-3.522 4.088,-6.231c0.947,-2.708 1.42,-5.956 1.42,-9.745c0,-3.788 -0.473,-7.036 -1.42,-9.745c-0.947,-2.708 -2.31,-4.785 -4.088,-6.231c-1.777,-1.445 -3.929,-2.168 -6.455,-2.168c-2.525,0 -4.694,0.723 -6.505,2.168c-1.811,1.446 -3.206,3.523 -4.187,6.231c-0.98,2.709 -1.47,5.957 -1.47,9.745Z" style="fill-rule:nonzero;"/><path d="M515.239,28.434c-4.661,6.735 -8.539,13.377 -11.731,19.939l-55.269,-0l-0,-19.939l67,0Zm-57.231,-18.343l27.516,-0l-0,70.283c-0,1.064 0.182,1.952 0.548,2.667c0.365,0.714 0.93,1.246 1.695,1.595c0.764,0.349 1.744,0.523 2.941,0.523c0.83,0 1.802,-0.099 2.916,-0.299c1.113,-0.199 3.999,-0.846 4.531,-0.979c1.233,7.199 4.091,12.544 7.263,16.847l-5.339,2.974c-1.23,0.366 -2.983,0.814 -5.259,1.346c-2.276,0.532 -4.976,0.881 -8.1,1.047c-6.314,0.332 -11.614,-0.324 -15.901,-1.969c-4.287,-1.645 -7.51,-4.245 -9.67,-7.801c-2.16,-3.556 -3.207,-8.009 -3.141,-13.359l0,-72.875Z" style="fill-rule:nonzero;"/></g><g><path d="M583.127,68.908c-29.564,48.108 -70.151,38.686 -72.581,9.531c-2.035,-24.414 17.127,-45.309 22.798,-51.622c19.506,-21.716 65.506,-29.777 65.668,-4.067c0.057,8.989 -16.318,33.53 -26.181,26.404c-17.266,-12.476 38.686,-52.319 51.162,-32.818" style="fill:none;stroke:#000;stroke-width:8.78px;"/><path d="M598.751,61.477c9.785,-4.838 25.56,-20.52 30.824,-29.687c4.532,-7.894 13.98,-29.236 5.821,-24.547c-29.519,16.96 -53.216,98.155 -51.627,95.518c25.159,-41.753 56.234,-56.891 37.032,-18.428c-11.286,22.604 13.21,24.326 19.597,2.247" style="fill:none;stroke:#000;stroke-width:8.78px;"/><path d="M653.173,86.02c10.328,0.919 21.715,-9.454 24.05,-12.112c9.008,-10.257 1.899,-16.262 -12.877,-13.324c-10.699,2.128 -20.099,14.992 -23.834,25.503c-6.045,17.009 12.266,17.646 23.38,16.448c13.283,-1.433 22.829,-9.896 40.646,-27.341" style="fill:none;stroke:#000;stroke-width:8.78px;"/><path d="M713.853,78.763c21.444,-6.139 65.549,-73.176 48.047,-72.257c-5.632,0.296 -26.996,24.393 -46.006,51.092c-20.935,29.403 -33.437,55.596 -36.003,67.253c-2.603,11.825 21.364,1.607 25.954,-23.189c2.357,-12.736 3.726,-35.229 4.053,-35.168c10.011,1.873 -4.976,26.242 26.285,33.744c13.912,3.338 39.167,-11.592 54.83,-44.331" style="fill:none;stroke:#000;stroke-width:8.78px;"/></g></g></g></svg>