<?xml version="1.0" encoding="UTF-8" standalone="no"?><!DOCTYPE svg PUBLIC "-//W3C//DTD SVG 1.1//EN" "http://www.w3.org/Graphics/SVG/1.1/DTD/svg11.dtd"><svg width="100%" height="100%" viewBox="0 0 192 192" version="1.1" xmlns="http://www.w3.org/2000/svg" xmlns:xlink="http://www.w3.org/1999/xlink" xml:space="preserve" xmlns:serif="http://www.serif.com/" style="fill-rule:evenodd;clip-rule:evenodd;stroke-linejoin:round;stroke-miterlimit:2;"><rect id="mask" x="0" y="0" width="192" height="192" style="fill:none;"/><clipPath id="_clip1"><rect id="mask1" serif:id="mask" x="0" y="0" width="192" height="192"/></clipPath><g clip-path="url(#_clip1)"><path d="M67.372,110.627c-0.816,0.487 -1.661,0.947 -2.534,1.38c-5.957,2.953 -12.907,4.429 -20.849,4.429l-15.681,0l-0,30.956l-28.308,-0l-0,-104.27l45.007,-0c7.739,-0 14.51,1.527 20.315,4.582c5.804,3.055 10.318,7.348 13.542,12.881c2.391,4.101 3.895,8.714 4.513,13.841c3.352,-4.469 6.406,-7.868 8.217,-9.884c12.843,-14.298 36.172,-23.157 52.803,-21.899c7.334,0.555 13.432,3.061 17.329,7.429c3.402,-1.331 6.765,-2.291 9.927,-2.765c8.503,-1.274 15.656,0.88 19.641,7.109c1.333,2.084 0.723,4.858 -1.361,6.191c-2.083,1.334 -4.858,0.724 -6.191,-1.36c-1.695,-2.65 -4.684,-3.425 -8.109,-3.321c-3.029,0.093 -6.361,0.863 -9.771,2.117c0.395,1.629 0.611,3.398 0.623,5.312c0.019,3.081 -1.38,7.704 -3.898,12.501c-3.5,6.667 -9.074,13.74 -14.65,17.372c-5.352,3.486 -10.792,4.015 -15.301,0.757c-4.386,-3.169 -5.813,-7.443 -5.006,-12.272c0.903,-5.407 5.291,-11.896 11.728,-17.724c3.938,-3.566 8.615,-6.913 13.515,-9.68c-2.414,-1.605 -5.6,-2.458 -9.152,-2.726c-14.329,-1.085 -34.393,6.631 -45.458,18.95c-5.437,6.053 -24.104,25.952 -22.153,49.359c0.62,7.438 4.086,13.408 9.418,16.958c5.061,3.37 11.725,4.535 19.027,2.973c12.067,-2.582 25.57,-12.385 37.403,-31.64c1.295,-2.108 4.058,-2.768 6.166,-1.473c2.108,1.296 2.767,4.058 1.472,6.166c-12.866,20.937 -27.81,31.676 -41.09,35.215c-10.755,2.866 -20.58,1.125 -27.946,-3.779c-7.476,-4.977 -12.514,-13.247 -13.384,-23.676c-0.284,-3.406 -0.192,-6.751 0.196,-10.009Zm90.071,-48.635c-1.679,0.949 -3.332,1.978 -4.929,3.061c-6.225,4.223 -11.643,9.315 -14.444,14.136c-1.722,2.964 -2.651,5.747 -0.184,7.53c1.073,0.775 2.316,0.459 3.584,-0.123c1.515,-0.695 3.032,-1.84 4.512,-3.224c3.8,-3.55 7.266,-8.643 9.435,-13.22c1.245,-2.626 2.114,-5.021 2.103,-6.741c-0.003,-0.49 -0.029,-0.963 -0.077,-1.419Zm-129.135,32.45l9.979,0c3.326,0 6.169,-0.585 8.528,-1.756c2.359,-1.171 4.174,-2.843 5.447,-5.015c1.273,-2.173 1.91,-4.735 1.91,-7.688c-0,-2.987 -0.637,-5.541 -1.91,-7.663c-1.273,-2.121 -3.088,-3.75 -5.447,-4.887c-2.359,-1.137 -5.202,-1.706 -8.528,-1.706l-9.979,0l-0,28.715Z"/></g></svg>