<svg xmlns="http://www.w3.org/2000/svg" xml:space="preserve" style="fill-rule:evenodd;clip-rule:evenodd;stroke-linecap:round;stroke-linejoin:round;stroke-miterlimit:10" viewBox="0 0 797 132"><g transform="scale(.4586 .09133)"><path d="M0 0h1736.04v1440H0z" style="fill:none"/><clipPath id="a"><path d="M0 0h1736.04v1440H0z"/></clipPath><g clip-path="url(#a)"><path d="M60.44 786v331.79H0V.03h96.07c16.53 0 30.99 16.31 43.37 49.05 12.4 32.74 22.03 78.84 28.92 138.08 6.89 59.35 10.33 128.66 10.33 208.05 0 80.04-3.53 149.36-10.6 207.94-7.06 58.58-16.96 103.7-29.67 135.34C125.7 770.13 110.85 786 93.92 786H60.43Zm0-235.85h21.3c7.1 0 13.15-6.24 18.19-18.83 5.04-12.49 8.92-30.44 11.64-53.77 2.7-23.21 4.08-50.7 4.08-82.34 0-32.08-1.37-59.46-4.08-82.23-2.72-22.67-6.6-40.19-11.64-52.34-5.04-12.16-11.1-18.3-18.19-18.3h-21.3v307.8Z"/><path d="M242.3 104.72V45.27h20.74v11.3h.62c1.09-4.18 2.8-7.24 5.17-9.17a12.7 12.7 0 0 1 8.3-2.9 18.05 18.05 0 0 1 5.42.8v18.24a19.17 19.17 0 0 0-3.9-.81 35.32 35.32 0 0 0-4-.27c-2.08 0-3.96.47-5.63 1.4a10.22 10.22 0 0 0-3.92 3.96 11.88 11.88 0 0 0-1.44 5.94v30.96H242.3Z" style="fill-rule:nonzero" transform="matrix(2.80806 0 0 14.10094 -479.09 -358.88)"/><path d="M314.91 105.8c-6.45 0-11.97-1.28-16.56-3.84a26.2 26.2 0 0 1-10.57-10.76c-2.45-4.61-3.68-9.96-3.68-16.05s1.23-11.44 3.68-16.04a26.2 26.2 0 0 1 10.57-10.76c4.59-2.57 10.11-3.86 16.56-3.86 6.45 0 11.97 1.29 16.57 3.86a26.2 26.2 0 0 1 10.57 10.76c2.45 4.6 3.67 9.95 3.67 16.04 0 6.1-1.22 11.44-3.67 16.05a26.2 26.2 0 0 1-10.57 10.76c-4.6 2.56-10.12 3.85-16.57 3.85Zm.16-15.78c1.8 0 3.36-.61 4.68-1.82a11.8 11.8 0 0 0 3.06-5.2 26.27 26.27 0 0 0 1.08-8c0-3.13-.36-5.8-1.08-8.03a11.8 11.8 0 0 0-3.06-5.17 6.68 6.68 0 0 0-4.68-1.82c-1.91 0-3.55.6-4.92 1.82a11.43 11.43 0 0 0-3.13 5.17 26.25 26.25 0 0 0-1.09 8.03c0 3.1.36 5.76 1.08 8a11.43 11.43 0 0 0 3.14 5.2 7.15 7.15 0 0 0 4.92 1.81Z" style="fill-rule:nonzero" transform="matrix(2.80806 0 0 14.10094 -468.19 -358.88)"/><path d="M356.56 104.72V45.27h20.28v11.3h.62a17.35 17.35 0 0 1 6.35-8.82c3-2.17 6.56-3.26 10.68-3.26 4.19 0 7.78 1.1 10.8 3.31a13.25 13.25 0 0 1 5.46 8.77h.62a15.2 15.2 0 0 1 6.43-8.77 20.16 20.16 0 0 1 11.53-3.3c5.7 0 10.33 1.83 13.88 5.5 3.55 3.66 5.32 8.53 5.32 14.62v40.1h-21.37V70.04c0-2.6-.65-4.65-1.97-6.13a6.73 6.73 0 0 0-5.3-2.23c-2.2 0-3.93.74-5.21 2.23-1.28 1.48-1.92 3.53-1.92 6.13v34.68h-20.43V70.04c0-2.6-.66-4.65-1.98-6.13a6.73 6.73 0 0 0-5.3-2.23c-1.47 0-2.74.34-3.8 1a6.6 6.6 0 0 0-2.45 2.9 10.54 10.54 0 0 0-.87 4.46v34.68h-21.37ZM456.58 127.02V45.27h21.21v10.37h.47c.77-2.01 1.9-3.86 3.4-5.55a16.57 16.57 0 0 1 5.58-4.07 18.38 18.38 0 0 1 7.74-1.53c3.92 0 7.66 1.05 11.2 3.14 3.55 2.1 6.44 5.38 8.68 9.87 2.23 4.5 3.34 10.32 3.34 17.5 0 6.86-1.06 12.55-3.19 17.07-2.13 4.51-4.97 7.88-8.51 10.1a21.59 21.59 0 0 1-11.68 3.33c-2.78 0-5.27-.46-7.45-1.38a16.6 16.6 0 0 1-9.11-9.15h-.31v32.05h-21.37ZM477.48 75c0 2.89.38 5.38 1.14 7.49.77 2.1 1.85 3.73 3.26 4.87a7.73 7.73 0 0 0 5.05 1.73 7.7 7.7 0 0 0 5.01-1.69 10.53 10.53 0 0 0 3.18-4.84c.73-2.1 1.1-4.62 1.1-7.56 0-2.94-.37-5.47-1.1-7.57-.74-2.1-1.8-3.72-3.18-4.84a7.7 7.7 0 0 0-5.01-1.68c-1.96 0-3.65.56-5.05 1.68a10.63 10.63 0 0 0-3.25 4.84 22.3 22.3 0 0 0-1.15 7.57Z" style="fill-rule:nonzero" transform="matrix(2.80806 0 0 14.10094 -477.45 -358.88)"/><path d="M998.71 497.8h-21.3V279.48h21.3V78.65h59.99v200.82h64.8a5429.48 5429.48 0 0 0-25.58 218.34h-39.22v350.4c0 11.6.41 21.35 1.2 29.23.8 7.77 2.02 13.58 3.7 17.41 1.66 3.83 3.8 5.7 6.41 5.7 1.81 0 3.93-1.1 6.35-3.18 2.44-2.2 8.72-9.3 9.9-10.73 2.68 78.84 8.92 137.3 15.83 184.4l-11.64 32.62c-2.69 3.95-6.5 8.87-11.47 14.68-4.98 5.8-10.86 9.63-17.67 11.5-13.76 3.6-25.31-3.51-34.67-21.58-9.35-17.95-16.37-46.42-21.08-85.4-4.71-38.99-7-87.71-6.85-146.3V497.81Z"/><path d="M1056.94 1365.21c-50.68 83.12-120.24 66.84-124.4 16.47-3.5-42.18 29.35-78.28 39.07-89.18 33.43-37.52 112.27-51.45 112.55-7.03.1 15.53-27.97 57.93-44.87 45.62-29.6-21.56 66.31-90.39 87.69-56.7" style="fill:none;stroke:#000;stroke-width:15.1px" transform="matrix(1.2722 0 0 6.33797 -73.1 -7930.07)"/><path d="M1118.99 1355.98c16.78-8.29 43.81-35.17 52.84-50.88 7.77-13.53 23.96-50.11 9.97-42.08-50.59 29.07-91.21 168.24-88.48 163.72 43.12-71.56 96.38-97.51 63.47-31.59-19.35 38.75 22.64 41.7 33.59 3.86" style="fill:none;stroke:#000;stroke-width:15.04px" transform="matrix(1.2722 0 0 6.38845 -117.97 -8021.37)"/><path d="M1237.45 1392.1c17.71 1.57 37.22-16.21 41.23-20.76 15.44-17.59 3.25-27.88-22.07-22.84-18.34 3.65-34.45 25.69-40.86 43.71-10.36 29.15 21.03 30.24 40.08 28.19 22.76-2.45 39.13-16.96 69.67-46.86" style="fill:none;stroke:#000;stroke-width:15.04px" transform="matrix(1.2722 0 0 6.38845 -150 -7983.34)"/><path d="M1377.69 1390.57c36.76-10.52 112.35-125.43 82.36-123.85-9.66.51-46.28 41.81-78.86 87.57-35.88 50.4-57.31 95.29-61.71 115.27-4.46 20.27 36.62 2.76 44.49-39.74 4.04-21.83 6.38-60.39 6.94-60.28 17.16 3.21-8.53 44.98 45.05 57.84 23.85 5.72 67.14-19.87 93.98-75.99" style="fill:none;stroke:#000;stroke-width:15.04px" transform="matrix(1.2722 0 0 6.38845 -196.1 -8053.05)"/></g></g></svg>