<?xml version="1.0" encoding="UTF-8" standalone="no"?><!DOCTYPE svg PUBLIC "-//W3C//DTD SVG 1.1//EN" "http://www.w3.org/Graphics/SVG/1.1/DTD/svg11.dtd"><svg width="100%" height="100%" viewBox="0 0 1920 540" version="1.1" xmlns="http://www.w3.org/2000/svg" xmlns:xlink="http://www.w3.org/1999/xlink" xml:space="preserve" xmlns:serif="http://www.serif.com/" style="fill-rule:evenodd;clip-rule:evenodd;stroke-linejoin:round;stroke-miterlimit:2;"><rect id="Logo" x="0" y="0" width="1920" height="539.971" style="fill:none;"/><clipPath id="_clip1"><rect id="Logo1" serif:id="Logo" x="0" y="0" width="1920" height="539.971"/></clipPath><g clip-path="url(#_clip1)"><path d="M1399.15,0.009c29.408,0 53.248,23.84 53.248,53.248l-0,0.704c-0,29.408 -23.84,53.247 -53.248,53.247l-182.643,0l0,107.514l93.383,0c29.407,0 53.247,23.84 53.247,53.248l0,0.704c0,29.408 -23.84,53.247 -53.247,53.247l-93.383,0l0,106.559l180.634,-0c14.122,-0 27.666,5.61 37.651,15.595c9.986,9.986 15.596,23.53 15.596,37.652l0,0.705c0,14.122 -5.61,27.665 -15.596,37.651c-9.985,9.986 -23.529,15.596 -37.651,15.596l-180.634,-0l0,0.478l-54.982,-0c-28.839,-0 -52.217,-23.379 -52.217,-52.218l0,-431.713c0,-28.838 23.378,-52.217 52.217,-52.217l237.625,0Zm-608.314,192.073l176.584,-176.584c20.795,-20.794 54.509,-20.794 75.303,0l0.459,0.459c20.794,20.795 20.794,54.509 0,75.303l-176.584,176.584l176.584,176.584c20.794,20.794 20.794,54.508 0,75.303l-0.459,0.459c-20.794,20.794 -54.508,20.794 -75.303,-0l-176.584,-176.584l-176.425,176.425c-9.985,9.986 -23.529,15.596 -37.651,15.596c-14.122,-0 -27.666,-5.61 -37.652,-15.596l-0.459,-0.459c-9.985,-9.986 -15.595,-23.529 -15.595,-37.651c-0,-14.123 5.61,-27.666 15.595,-37.652l176.425,-176.425l-176.425,-176.425c-9.985,-9.986 -15.595,-23.529 -15.595,-37.651c-0,-14.123 5.61,-27.666 15.595,-37.652l0.459,-0.459c9.986,-9.986 23.53,-15.596 37.652,-15.596c14.122,0 27.666,5.61 37.651,15.596l176.425,176.425Zm-523.002,-192.073c147.822,0 267.834,120.013 267.834,267.835c0,147.822 -120.012,267.835 -267.834,267.835c-147.822,-0 -267.835,-120.013 -267.835,-267.835c-0,-147.822 120.013,-267.835 267.835,-267.835Zm-0,108.075c-88.702,0 -160.716,72.014 -160.716,160.716c0,88.701 72.014,160.715 160.716,160.715c88.701,0 160.715,-72.014 160.715,-160.715c0,-88.702 -72.014,-160.716 -160.715,-160.716Zm1340.28,-30.598c0,5.515 2.191,10.805 6.091,14.705l146.362,146.361c16.68,16.68 30.948,35.611 42.388,56.241l10.539,19.004l-0.697,-23.015l-0,-237.525c-0,-29.408 23.84,-53.248 53.247,-53.248l0.705,0c29.407,0 53.247,23.84 53.247,53.248l-0,429.652c-0,29.408 -23.84,53.248 -53.247,53.248l-0.705,-0c-29.407,-0 -53.247,-23.84 -53.247,-53.248l-0,-31.911c-0,-5.515 -2.191,-10.805 -6.091,-14.705l-148.104,-148.104c-18.35,-18.35 -33.77,-39.412 -45.719,-62.449l-4.82,-9.292l0.051,21.254l0,245.207c0,29.408 -23.839,53.248 -53.247,53.248l-0.704,-0c-29.408,-0 -53.248,-23.84 -53.248,-53.248l0,-429.652c0,-29.408 23.84,-53.248 53.248,-53.248l0.704,0c29.408,0 53.247,23.84 53.247,53.248l0,24.229Z"/></g></svg>